<svg width="72" height="18" viewBox="0 0 72 18" fill="none" xmlns="http://www.w3.org/2000/svg">
<path d="M3.35 17.075C3.18333 17.075 3.05 17.0583 2.95 17.025H2.45H2H1.825L0.7 16.75L0.6 16.55C0.583333 16.55 0.575 16.4583 0.575 16.275C0.575 16.0417 0.566667 15.85 0.55 15.7L0.525 14.55C0.508333 14.3 0.5 13.925 0.5 13.425L0.45 11.5C0.45 11.0833 0.466667 10.5083 0.5 9.775L0.525 8.925C0.558333 8.39167 0.575 7.51667 0.575 6.3V6.125V5.8C0.541667 5.75 0.525 5.65833 0.525 5.525L0.5 5.35C0.5 4.93333 0.525 4.5 0.575 4.05C0.608333 3.48333 0.625 2.96667 0.625 2.5L0.6 1.8C0.583333 1.61667 0.575 1.4 0.575 1.15C0.575 1.13333 0.558333 1.10833 0.525 1.075C0.508333 1.04167 0.5 1.00833 0.5 0.974999C0.5 0.808333 0.566667 0.666666 0.7 0.549999C0.833333 0.433333 1 0.349999 1.2 0.299999C1.46667 0.216666 1.80833 0.174999 2.225 0.174999H6.45H8.4C8.41667 0.174999 8.44167 0.191666 8.475 0.225C8.50833 0.258333 8.54167 0.283332 8.575 0.299999C8.70833 0.416666 8.875 0.641666 9.075 0.974999C9.125 1.075 9.175 1.19167 9.225 1.325C9.29167 1.44167 9.375 1.63333 9.475 1.9C9.59167 2.16667 9.75 2.575 9.95 3.125L10.25 3.9C10.3833 4.15 10.5333 4.50833 10.7 4.975C10.75 5.10833 10.8 5.24167 10.85 5.375C10.9167 5.50833 10.975 5.64167 11.025 5.775C11.0583 5.89167 11.0917 5.98333 11.125 6.05C11.175 6.1 11.2 6.13333 11.2 6.15C11.3167 6.41667 11.4417 6.55 11.575 6.55C11.7417 6.55 11.875 6.41667 11.975 6.15C11.9917 6.13333 12.0083 6.1 12.025 6.05C12.0417 5.98333 12.0833 5.88333 12.15 5.75L12.525 4.925L13.525 2.8L13.95 1.9C14 1.76667 14.0333 1.65833 14.05 1.575C14.0833 1.475 14.1167 1.40833 14.15 1.375C14.2167 1.225 14.375 0.966666 14.625 0.6C14.7083 0.466666 14.7833 0.366666 14.85 0.299999C14.9 0.283332 14.9333 0.258333 14.95 0.225C14.9667 0.191666 14.9917 0.174999 15.025 0.174999H16.975H21.2H21.575H21.825H22.15H22.7C22.7333 0.174999 22.775 0.299999 22.825 0.549999L22.9 3C22.9333 3.7 22.95 4.8 22.95 6.3V7.75C22.95 8.31667 22.925 8.95 22.875 9.65C22.825 10.35 22.7917 10.8 22.775 11L22.725 11.5V12.375C22.7417 12.6083 22.75 12.9583 22.75 13.425C22.75 13.925 22.7583 14.3 22.775 14.55C22.775 15.0333 22.7917 15.3667 22.825 15.55V16.275V16.55L22.75 16.75L21.625 17.025H21.45H21H20.5C20.3833 17.0583 20.2417 17.075 20.075 17.075C19.775 17.075 19.3583 17.0583 18.825 17.025L18.2 17C18.0833 16.9833 17.95 16.9667 17.8 16.95C17.65 16.9333 17.4667 16.925 17.25 16.925L16.275 16.85C16.2417 16.85 16.2167 16.8583 16.2 16.875H16C15.9167 16.875 15.8667 16.7833 15.85 16.6C15.75 16.2667 15.7 15.7 15.7 14.9C15.7 14.3667 15.6917 13.95 15.675 13.65L15.65 12.3C15.6333 12 15.625 11.5667 15.625 11C15.625 10.8667 15.5667 10.8 15.45 10.8C15.3833 10.8 15.3167 10.8833 15.25 11.05L14.975 11.725L14.75 12.35C14.7167 12.45 14.6833 12.55 14.65 12.65C14.6167 12.75 14.575 12.8417 14.525 12.925L14.4 13.225C14.25 13.5583 14.0583 13.9333 13.825 14.35C13.575 14.8 13.2667 15.1583 12.9 15.425C12.7 15.5417 12.525 15.6 12.375 15.6H12C11.8 15.6 11.6333 15.5833 11.5 15.55H10.95H10.45C9.78333 14.4833 9.15833 13.3167 8.575 12.05L8.2 11.125C8.1 10.9083 8.03333 10.8 8 10.8C7.88333 10.8 7.825 10.8667 7.825 11V12.175C7.825 13.3417 7.80833 14.2 7.775 14.75C7.74167 15.6167 7.68333 16.2167 7.6 16.55C7.58333 16.7667 7.53333 16.875 7.45 16.875H7.275L7.15 16.85C6.58333 16.8833 6.13333 16.9167 5.8 16.95C5.6 16.9667 5.25 16.9917 4.75 17.025C4.25 17.0583 3.78333 17.075 3.35 17.075Z" fill="#D5D6FF"/>
<path d="M31.4262 17.5C31.3195 17.5 31.1729 17.4867 30.9862 17.46C30.8929 17.4333 30.7462 17.42 30.5462 17.42C30.0395 17.42 29.4129 17.3067 28.6662 17.08H28.5262C28.4329 17.08 28.3329 17.0533 28.2262 17C28.1995 16.9733 28.1662 16.9533 28.1262 16.94C28.0862 16.9133 28.0395 16.88 27.9862 16.84L27.5662 16.6C27.1662 16.3733 26.8129 16.06 26.5062 15.66C26.1995 15.2467 25.9529 14.7933 25.7662 14.3C25.4062 13.3933 25.2262 12.4667 25.2262 11.52C25.2262 10.4667 25.4395 9.45333 25.8662 8.48C26.3195 7.45333 26.9262 6.64 27.6862 6.04C28.5262 5.37333 29.4595 5.04 30.4862 5.04C30.8062 5.04 31.0529 5.05333 31.2262 5.08C31.2262 5.05333 31.2462 5.04 31.2862 5.04H31.3462C32.2795 5.04 33.1129 5.07333 33.8462 5.14C34.4729 5.23333 35.0529 5.42667 35.5862 5.72C36.6529 6.42667 37.4195 7.2 37.8862 8.04C38.3795 8.97333 38.6262 10.0733 38.6262 11.34C38.6262 12.6067 38.3262 13.7933 37.7262 14.9L37.5262 15.22C37.4729 15.3 37.4395 15.34 37.4262 15.34L37.3662 15.44L37.2262 15.52C36.6529 16.3733 35.7862 16.9533 34.6262 17.26C33.8529 17.42 32.7862 17.5 31.4262 17.5ZM31.7662 16C31.8862 16 31.9795 15.9267 32.0462 15.78C32.2062 15.54 32.3395 15.0733 32.4462 14.38C32.4595 14.26 32.4929 13.9933 32.5462 13.58C32.5995 13.1667 32.6329 12.78 32.6462 12.42C32.6995 11.5133 32.7262 10.9533 32.7262 10.74V10.28V10.12C32.7262 9.64 32.7062 9.22667 32.6662 8.88C32.6262 8.33333 32.5462 7.9 32.4262 7.58C32.3062 7.42 32.2129 7.34 32.1462 7.34C32.0129 7.34 31.8862 7.44 31.7662 7.64C31.6462 7.84 31.5529 8.20667 31.4862 8.74L31.0662 11.94V12.34V12.6C31.1062 13.16 31.1262 13.5267 31.1262 13.7L31.1662 14.18L31.2262 14.82C31.2262 14.9267 31.2395 15.02 31.2662 15.1L31.4862 15.84C31.4995 15.8933 31.5329 15.9333 31.5862 15.96C31.6529 15.9867 31.7129 16 31.7662 16Z" fill="#DAFFC9"/>
<path d="M46.5239 17.5C46.4172 17.5 46.2705 17.4867 46.0839 17.46C45.9905 17.4333 45.8439 17.42 45.6439 17.42C45.1372 17.42 44.5105 17.3067 43.7639 17.08H43.6239C43.5305 17.08 43.4305 17.0533 43.3239 17C43.2972 16.9733 43.2639 16.9533 43.2239 16.94C43.1839 16.9133 43.1372 16.88 43.0839 16.84L42.6639 16.6C42.2639 16.3733 41.9105 16.06 41.6039 15.66C41.2972 15.2467 41.0505 14.7933 40.8639 14.3C40.5039 13.3933 40.3239 12.4667 40.3239 11.52C40.3239 10.4667 40.5372 9.45333 40.9639 8.48C41.4172 7.45333 42.0239 6.64 42.7839 6.04C43.6239 5.37333 44.5572 5.04 45.5839 5.04C45.9039 5.04 46.1505 5.05333 46.3239 5.08C46.3239 5.05333 46.3439 5.04 46.3839 5.04H46.4439C47.3772 5.04 48.2105 5.07333 48.9439 5.14C49.5705 5.23333 50.1505 5.42667 50.6839 5.72C51.7505 6.42667 52.5172 7.2 52.9839 8.04C53.4772 8.97333 53.7239 10.0733 53.7239 11.34C53.7239 12.6067 53.4239 13.7933 52.8239 14.9L52.6239 15.22C52.5705 15.3 52.5372 15.34 52.5239 15.34L52.4639 15.44L52.3239 15.52C51.7505 16.3733 50.8839 16.9533 49.7239 17.26C48.9505 17.42 47.8839 17.5 46.5239 17.5ZM46.8639 16C46.9839 16 47.0772 15.9267 47.1439 15.78C47.3039 15.54 47.4372 15.0733 47.5439 14.38C47.5572 14.26 47.5905 13.9933 47.6439 13.58C47.6972 13.1667 47.7305 12.78 47.7439 12.42C47.7972 11.5133 47.8239 10.9533 47.8239 10.74V10.28V10.12C47.8239 9.64 47.8039 9.22667 47.7639 8.88C47.7239 8.33333 47.6439 7.9 47.5239 7.58C47.4039 7.42 47.3105 7.34 47.2439 7.34C47.1105 7.34 46.9839 7.44 46.8639 7.64C46.7439 7.84 46.6505 8.20667 46.5839 8.74L46.1639 11.94V12.34V12.6C46.2039 13.16 46.2239 13.5267 46.2239 13.7L46.2639 14.18L46.3239 14.82C46.3239 14.9267 46.3372 15.02 46.3639 15.1L46.5839 15.84C46.5972 15.8933 46.6305 15.9333 46.6839 15.96C46.7505 15.9867 46.8105 16 46.8639 16Z" fill="#CCE7FF"/>
<path d="M60.7865 17.25C59.9032 17.25 59.1699 17.2083 58.5865 17.125C58.2865 17.1083 57.9282 17.0417 57.5115 16.925L56.7115 16.55H56.5615C56.5115 16.55 56.4615 16.5083 56.4115 16.425C56.3949 16.4083 56.3782 16.3833 56.3615 16.35C56.3615 16.3 56.3449 16.2417 56.3115 16.175C56.2282 15.9583 56.1782 15.7083 56.1615 15.425C56.1449 15.125 56.1365 14.8333 56.1365 14.55C56.1365 14.1833 56.1449 13.9083 56.1615 13.725C56.1615 13.625 56.1615 13.5083 56.1615 13.375C56.1782 13.2417 56.1782 13.0917 56.1615 12.925C56.0615 9.825 56.0115 7.525 56.0115 6.025V5.35V4.8C56.0115 4.55 56.0199 4.35833 56.0365 4.225C56.0365 4.10833 56.0532 3.88333 56.0865 3.55C56.1032 3.55 56.1199 3.53333 56.1365 3.5C56.1532 3.46667 56.1699 3.44167 56.1865 3.425C56.1699 3.44167 56.2782 3.35 56.5115 3.15C56.5615 3.1 56.6449 3.025 56.7615 2.925C56.8115 2.89167 56.8532 2.85833 56.8865 2.825C56.9365 2.79167 56.9865 2.75833 57.0365 2.725C57.1032 2.675 57.1532 2.61667 57.1865 2.55C57.3032 2.56667 57.4782 2.575 57.7115 2.575C57.9949 2.575 58.2449 2.56667 58.4615 2.55C58.6782 2.53333 58.8615 2.51667 59.0115 2.5C59.3949 2.45 59.9865 2.425 60.7865 2.425C61.9365 2.425 63.2699 2.525 64.7865 2.725C64.8865 2.74167 65.0615 2.76667 65.3115 2.8C65.5615 2.81667 65.7949 2.85 66.0115 2.9C67.0282 3.01667 67.8699 3.225 68.5365 3.525C69.3865 3.89167 69.9865 4.4 70.3365 5.05C70.5365 5.41667 70.6365 5.83333 70.6365 6.3C70.6365 6.53333 70.6199 6.73333 70.5865 6.9C70.5532 7.23333 70.5282 7.425 70.5115 7.475C70.4115 7.79167 70.2282 8.09167 69.9615 8.375C69.6615 8.70833 69.3949 8.91667 69.1615 9C69.1615 9.03333 69.1115 9.06667 69.0115 9.1C68.9949 9.1 68.8949 9.14167 68.7115 9.225C68.6782 9.24167 68.6282 9.26667 68.5615 9.3C68.5115 9.31667 68.4699 9.33333 68.4365 9.35L68.2615 9.425C68.0782 9.54167 67.9699 9.625 67.9365 9.675L68.0365 9.75C68.5699 9.98333 69.0115 10.2 69.3615 10.4C69.7115 10.6 70.0115 10.8333 70.2615 11.1C70.8449 11.7333 71.1365 12.5417 71.1365 13.525V13.75C71.1365 13.85 71.1199 13.9 71.0865 13.9L71.0115 14.05L70.8865 14.225C70.8199 14.2917 70.7365 14.3833 70.6365 14.5C70.5365 14.6167 70.4115 14.7417 70.2615 14.875L69.9615 15.125C69.7282 15.325 69.4949 15.4833 69.2615 15.6C69.0282 15.7 68.7199 15.8083 68.3365 15.925C68.2865 15.9583 68.1532 16.0167 67.9365 16.1C67.6532 16.2333 67.4449 16.3167 67.3115 16.35C67.0949 16.4333 66.8949 16.5083 66.7115 16.575C66.5282 16.6417 66.3782 16.7 66.2615 16.75C66.0949 16.7833 65.8949 16.8 65.6615 16.8L64.7615 16.925C63.8282 17.025 63.2949 17.075 63.1615 17.075C63.0615 17.1083 62.8949 17.125 62.6615 17.125C62.5115 17.1417 62.3365 17.15 62.1365 17.15L62.0365 17.2L61.9365 17.25H60.7865ZM63.3865 7.675H63.4615C63.4949 7.675 63.5199 7.675 63.5365 7.675C63.5699 7.65833 63.5865 7.65 63.5865 7.65C63.7865 7.56667 64.0449 7.45 64.3615 7.3L64.9115 7.05C65.0115 7 65.2115 6.90833 65.5115 6.775C65.5782 6.725 65.6282 6.69167 65.6615 6.675C65.7115 6.65833 65.7449 6.65 65.7615 6.65L66.0115 6.525C65.9615 6.425 65.8615 6.34167 65.7115 6.275C65.5782 6.20833 65.3865 6.13333 65.1365 6.05C64.7199 5.96667 64.3865 5.925 64.1365 5.925C63.6865 5.925 63.4032 6.075 63.2865 6.375C63.2032 6.575 63.1615 6.94167 63.1615 7.475C63.1615 7.49167 63.1615 7.525 63.1615 7.575C63.1615 7.60833 63.1699 7.63333 63.1865 7.65C63.2032 7.66667 63.2365 7.675 63.2865 7.675H63.3865ZM63.0615 13.75C63.0782 13.75 63.0865 13.7417 63.0865 13.725L66.4115 12.175L66.5865 12.025C66.5199 11.9917 66.4532 11.975 66.3865 11.975L66.1865 11.875C66.0365 11.8417 65.8449 11.8167 65.6115 11.8C65.3782 11.7667 65.1782 11.725 65.0115 11.675C64.8949 11.675 64.7282 11.6667 64.5115 11.65C64.2949 11.6167 64.0949 11.6 63.9115 11.6H63.0865C62.9532 11.6 62.8865 11.7083 62.8865 11.925V13.65C62.8865 13.7167 62.9282 13.75 63.0115 13.75H63.0615Z" fill="#FFEAB3"/>
</svg>
