<svg width="25" height="24" viewBox="0 0 25 24" fill="none" xmlns="http://www.w3.org/2000/svg">
<path d="M24.4816 11.6162L13.8264 0.966587L13.1122 0.252384C12.9495 0.0907279 12.7294 0 12.5 0C12.2707 0 12.0506 0.0907279 11.8879 0.252384L0.518532 11.6162C0.351787 11.7823 0.220005 11.9801 0.130966 12.198C0.0419262 12.4158 -0.00256625 12.6493 0.000114299 12.8847C0.0111445 13.8553 0.819104 14.6302 1.78976 14.6302H2.96171V23.6115H22.0384V14.6302H23.2352C23.7067 14.6302 24.1507 14.4454 24.4843 14.1118C24.6486 13.948 24.7788 13.7533 24.8673 13.5389C24.9558 13.3244 25.0009 13.0946 25 12.8626C25 12.3938 24.8152 11.9499 24.4816 11.6162ZM14.0443 21.6261H10.9558V16.0007H14.0443V21.6261ZM20.053 12.6448V21.6261H15.8091V15.3389C15.8091 14.7295 15.3155 14.2359 14.7061 14.2359H10.294C9.6846 14.2359 9.191 14.7295 9.191 15.3389V21.6261H4.94714V12.6448H2.2999L12.5028 2.45014L13.1398 3.08714L22.703 12.6448H20.053Z" fill="#C4C4C4"/>
</svg>
