<svg width="375" height="812" viewBox="0 0 375 812" fill="none" xmlns="http://www.w3.org/2000/svg">
<rect width="375" height="812" fill="white"/>
<path d="M145.032 724.628C146.016 724.628 146.736 724.376 147.228 724.1V723.428C146.736 723.668 146.136 723.944 145.116 723.944C143.208 723.944 142.416 722.732 142.416 720.56V720.2C142.416 717.98 143.496 716.996 145.14 716.996C145.968 716.996 146.556 717.164 147.144 717.416V716.756C146.676 716.504 146.064 716.312 145.188 716.312C143.088 716.312 141.576 717.524 141.576 720.344V720.56C141.576 723.248 142.824 724.628 145.032 724.628ZM150.941 724.592C152.513 724.592 153.617 723.5 153.617 721.592V721.436C153.617 719.516 152.585 718.472 150.953 718.472C149.393 718.472 148.289 719.552 148.289 721.472V721.64C148.289 723.548 149.321 724.592 150.941 724.592ZM150.965 723.968C149.897 723.968 149.069 723.356 149.069 721.664V721.388C149.069 719.9 149.801 719.084 150.941 719.084C152.021 719.084 152.837 719.696 152.837 721.412V721.664C152.837 723.188 152.093 723.968 150.965 723.968ZM154.989 726.272H155.733V724.184C156.081 724.4 156.621 724.592 157.317 724.592C158.949 724.592 159.993 723.68 159.993 721.544V721.412C159.993 719.18 158.901 718.472 157.593 718.472C156.789 718.472 156.165 718.748 155.757 719.06H155.709V718.58H154.989V726.272ZM157.245 723.98C156.609 723.98 156.057 723.764 155.733 723.548V719.612C156.069 719.384 156.657 719.12 157.401 719.12C158.541 719.12 159.201 719.636 159.201 721.448V721.664C159.201 723.32 158.481 723.98 157.245 723.98ZM161.844 726.296C162.792 726.296 163.224 725.828 163.584 724.856L165.936 718.568H165.192L163.464 723.224H163.44L161.58 718.568H160.788L163.068 724.208L162.876 724.772C162.648 725.396 162.312 725.66 161.724 725.66C161.508 725.66 161.28 725.612 161.124 725.576V726.14C161.292 726.224 161.58 726.296 161.844 726.296ZM167.06 724.496H167.816V719.792C168.236 719.444 168.848 719.192 169.472 719.192C169.58 719.192 169.748 719.204 169.892 719.228V718.532C169.82 718.508 169.664 718.496 169.532 718.496C168.836 718.496 168.176 718.868 167.828 719.252H167.78V718.568H167.06V724.496ZM171.127 724.496H171.883V718.58H171.127V724.496ZM171.115 717.344H171.895V716.516H171.115V717.344ZM175.685 726.296C177.665 726.296 178.481 725.492 178.481 724.508C178.481 723.416 177.689 723.104 176.633 723.104H174.953C174.545 723.104 174.329 722.948 174.329 722.612C174.329 722.396 174.473 722.24 174.641 722.084C174.953 722.204 175.313 722.264 175.697 722.264C176.921 722.264 177.869 721.64 177.869 720.38V720.32C177.869 719.804 177.689 719.408 177.353 719.12H178.505V718.544H176.513C176.261 718.484 175.997 718.448 175.709 718.448C174.437 718.448 173.501 719.144 173.501 720.344V720.416C173.501 721.1 173.801 721.58 174.245 721.88C173.825 722.216 173.609 722.492 173.609 722.864C173.609 723.248 173.885 723.512 174.209 723.596V723.644C173.573 723.872 173.057 724.232 173.057 724.892C173.057 725.744 173.861 726.296 175.685 726.296ZM175.661 725.684C174.353 725.684 173.861 725.372 173.861 724.784C173.861 724.232 174.257 723.968 174.773 723.8H176.513C177.317 723.8 177.689 723.956 177.689 724.616C177.689 725.264 177.149 725.684 175.661 725.684ZM175.697 721.688C174.845 721.688 174.269 721.256 174.269 720.392V720.284C174.269 719.492 174.821 719.036 175.697 719.036C176.549 719.036 177.113 719.432 177.113 720.308V720.416C177.113 721.256 176.585 721.688 175.697 721.688ZM179.599 724.496H180.355V719.624C180.883 719.336 181.555 719.12 182.167 719.12C183.127 719.12 183.439 719.432 183.439 720.224V724.496H184.195V720.068C184.195 718.94 183.619 718.484 182.491 718.484C181.747 718.484 180.979 718.712 180.403 719.096H180.355V715.904H179.599V724.496ZM187.739 724.556C188.219 724.556 188.495 724.448 188.699 724.328V723.824C188.483 723.896 188.183 723.944 187.931 723.944C187.211 723.944 187.019 723.692 187.019 723.104V719.216H188.591V718.58H187.019V717.176H186.263V718.58H185.399V719.216H186.263V723.212C186.263 724.172 186.827 724.556 187.739 724.556ZM197.021 724.412C199.361 724.412 201.137 722.552 201.137 720.26C201.137 717.992 199.361 716.132 197.021 716.132C194.657 716.132 192.905 717.992 192.905 720.26C192.905 722.552 194.657 724.412 197.021 724.412ZM197.021 723.932C194.945 723.932 193.481 722.372 193.481 720.26C193.481 718.172 194.945 716.612 197.021 716.612C199.085 716.612 200.561 718.172 200.561 720.26C200.561 722.372 199.085 723.932 197.021 723.932ZM197.105 722.588C197.693 722.588 198.077 722.42 198.353 722.252V721.688C198.089 721.82 197.777 721.976 197.189 721.976C196.253 721.976 195.809 721.388 195.809 720.32V720.116C195.809 719.06 196.325 718.556 197.129 718.556C197.633 718.556 197.969 718.652 198.305 718.784V718.196C198.065 718.064 197.705 717.944 197.165 717.944C195.965 717.944 195.041 718.628 195.041 720.188V720.32C195.041 721.82 195.845 722.588 197.105 722.588ZM205.946 724.496H206.666V717.452H206.69L209.222 724.496H209.954L212.486 717.452H212.51V724.496H213.29V716.444H212.138L209.642 723.452H209.606L207.11 716.444H205.946V724.496ZM217.48 724.592C219.052 724.592 220.156 723.5 220.156 721.592V721.436C220.156 719.516 219.124 718.472 217.492 718.472C215.932 718.472 214.828 719.552 214.828 721.472V721.64C214.828 723.548 215.86 724.592 217.48 724.592ZM217.504 723.968C216.436 723.968 215.608 723.356 215.608 721.664V721.388C215.608 719.9 216.34 719.084 217.48 719.084C218.56 719.084 219.376 719.696 219.376 721.412V721.664C219.376 723.188 218.632 723.968 217.504 723.968ZM223.796 724.592C225.368 724.592 226.472 723.5 226.472 721.592V721.436C226.472 719.516 225.44 718.472 223.808 718.472C222.248 718.472 221.144 719.552 221.144 721.472V721.64C221.144 723.548 222.176 724.592 223.796 724.592ZM223.82 723.968C222.752 723.968 221.924 723.356 221.924 721.664V721.388C221.924 719.9 222.656 719.084 223.796 719.084C224.876 719.084 225.692 719.696 225.692 721.412V721.664C225.692 723.188 224.948 723.968 223.82 723.968ZM228.001 724.496H230.665C232.429 724.496 233.317 723.596 233.317 722.252C233.317 720.956 232.525 720.416 231.553 720.284V720.236C232.489 719.996 232.945 719.36 232.945 718.448C232.945 717.152 232.213 716.444 230.401 716.444H228.001V724.496ZM228.769 723.848V720.632H230.485C231.757 720.632 232.513 721.076 232.513 722.192C232.513 723.308 231.853 723.848 230.629 723.848H228.769ZM228.769 720.008V717.104H230.341C231.565 717.104 232.141 717.476 232.141 718.532C232.141 719.624 231.361 720.008 230.305 720.008H228.769Z" fill="#8E8E8E"/>
<path d="M148.22 417.09C148.02 417.09 147.86 417.07 147.74 417.03H147.14H146.6H146.39L145.04 416.7L144.92 416.46C144.9 416.46 144.89 416.35 144.89 416.13C144.89 415.85 144.88 415.62 144.86 415.44L144.83 414.06C144.81 413.76 144.8 413.31 144.8 412.71L144.74 410.4C144.74 409.9 144.76 409.21 144.8 408.33L144.83 407.31C144.87 406.67 144.89 405.62 144.89 404.16V403.95V403.56C144.85 403.5 144.83 403.39 144.83 403.23L144.8 403.02C144.8 402.52 144.83 402 144.89 401.46C144.93 400.78 144.95 400.16 144.95 399.6L144.92 398.76C144.9 398.54 144.89 398.28 144.89 397.98C144.89 397.96 144.87 397.93 144.83 397.89C144.81 397.85 144.8 397.81 144.8 397.77C144.8 397.57 144.88 397.4 145.04 397.26C145.2 397.12 145.4 397.02 145.64 396.96C145.96 396.86 146.37 396.81 146.87 396.81H151.94H154.28C154.3 396.81 154.33 396.83 154.37 396.87C154.41 396.91 154.45 396.94 154.49 396.96C154.65 397.1 154.85 397.37 155.09 397.77C155.15 397.89 155.21 398.03 155.27 398.19C155.35 398.33 155.45 398.56 155.57 398.88C155.71 399.2 155.9 399.69 156.14 400.35L156.5 401.28C156.66 401.58 156.84 402.01 157.04 402.57C157.1 402.73 157.16 402.89 157.22 403.05C157.3 403.21 157.37 403.37 157.43 403.53C157.47 403.67 157.51 403.78 157.55 403.86C157.61 403.92 157.64 403.96 157.64 403.98C157.78 404.3 157.93 404.46 158.09 404.46C158.29 404.46 158.45 404.3 158.57 403.98C158.59 403.96 158.61 403.92 158.63 403.86C158.65 403.78 158.7 403.66 158.78 403.5L159.23 402.51L160.43 399.96L160.94 398.88C161 398.72 161.04 398.59 161.06 398.49C161.1 398.37 161.14 398.29 161.18 398.25C161.26 398.07 161.45 397.76 161.75 397.32C161.85 397.16 161.94 397.04 162.02 396.96C162.08 396.94 162.12 396.91 162.14 396.87C162.16 396.83 162.19 396.81 162.23 396.81H164.57H169.64H170.09H170.39H170.78H171.44C171.48 396.81 171.53 396.96 171.59 397.26L171.68 400.2C171.72 401.04 171.74 402.36 171.74 404.16V405.9C171.74 406.58 171.71 407.34 171.65 408.18C171.59 409.02 171.55 409.56 171.53 409.8L171.47 410.4V411.45C171.49 411.73 171.5 412.15 171.5 412.71C171.5 413.31 171.51 413.76 171.53 414.06C171.53 414.64 171.55 415.04 171.59 415.26V416.13V416.46L171.5 416.7L170.15 417.03H169.94H169.4H168.8C168.66 417.07 168.49 417.09 168.29 417.09C167.93 417.09 167.43 417.07 166.79 417.03L166.04 417C165.9 416.98 165.74 416.96 165.56 416.94C165.38 416.92 165.16 416.91 164.9 416.91L163.73 416.82C163.69 416.82 163.66 416.83 163.64 416.85H163.4C163.3 416.85 163.24 416.74 163.22 416.52C163.1 416.12 163.04 415.44 163.04 414.48C163.04 413.84 163.03 413.34 163.01 412.98L162.98 411.36C162.96 411 162.95 410.48 162.95 409.8C162.95 409.64 162.88 409.56 162.74 409.56C162.66 409.56 162.58 409.66 162.5 409.86L162.17 410.67L161.9 411.42C161.86 411.54 161.82 411.66 161.78 411.78C161.74 411.9 161.69 412.01 161.63 412.11L161.48 412.47C161.3 412.87 161.07 413.32 160.79 413.82C160.49 414.36 160.12 414.79 159.68 415.11C159.44 415.25 159.23 415.32 159.05 415.32H158.6C158.36 415.32 158.16 415.3 158 415.26H157.34H156.74C155.94 413.98 155.19 412.58 154.49 411.06L154.04 409.95C153.92 409.69 153.84 409.56 153.8 409.56C153.66 409.56 153.59 409.64 153.59 409.8V411.21C153.59 412.61 153.57 413.64 153.53 414.3C153.49 415.34 153.42 416.06 153.32 416.46C153.3 416.72 153.24 416.85 153.14 416.85H152.93L152.78 416.82C152.1 416.86 151.56 416.9 151.16 416.94C150.92 416.96 150.5 416.99 149.9 417.03C149.3 417.07 148.74 417.09 148.22 417.09Z" fill="#D5D6FF"/>
<path d="M181.911 417.6C181.783 417.6 181.607 417.584 181.383 417.552C181.271 417.52 181.095 417.504 180.855 417.504C180.247 417.504 179.495 417.368 178.599 417.096H178.431C178.319 417.096 178.199 417.064 178.071 417C178.039 416.968 177.999 416.944 177.951 416.928C177.903 416.896 177.847 416.856 177.783 416.808L177.279 416.52C176.799 416.248 176.375 415.872 176.007 415.392C175.639 414.896 175.343 414.352 175.119 413.76C174.687 412.672 174.471 411.56 174.471 410.424C174.471 409.16 174.727 407.944 175.239 406.776C175.783 405.544 176.511 404.568 177.423 403.848C178.431 403.048 179.551 402.648 180.783 402.648C181.167 402.648 181.463 402.664 181.671 402.696C181.671 402.664 181.695 402.648 181.743 402.648H181.815C182.935 402.648 183.935 402.688 184.815 402.768C185.567 402.88 186.263 403.112 186.903 403.464C188.183 404.312 189.103 405.24 189.663 406.248C190.255 407.368 190.551 408.688 190.551 410.208C190.551 411.728 190.191 413.152 189.471 414.48L189.231 414.864C189.167 414.96 189.127 415.008 189.111 415.008L189.039 415.128L188.871 415.224C188.183 416.248 187.143 416.944 185.751 417.312C184.823 417.504 183.543 417.6 181.911 417.6ZM182.319 415.8C182.463 415.8 182.575 415.712 182.655 415.536C182.847 415.248 183.007 414.688 183.135 413.856C183.151 413.712 183.191 413.392 183.255 412.896C183.319 412.4 183.359 411.936 183.375 411.504C183.439 410.416 183.471 409.744 183.471 409.488V408.936V408.744C183.471 408.168 183.447 407.672 183.399 407.256C183.351 406.6 183.255 406.08 183.111 405.696C182.967 405.504 182.855 405.408 182.775 405.408C182.615 405.408 182.463 405.528 182.319 405.768C182.175 406.008 182.063 406.448 181.983 407.088L181.479 410.928V411.408V411.72C181.527 412.392 181.551 412.832 181.551 413.04L181.599 413.616L181.671 414.384C181.671 414.512 181.687 414.624 181.719 414.72L181.983 415.608C181.999 415.672 182.039 415.72 182.103 415.752C182.183 415.784 182.255 415.8 182.319 415.8Z" fill="#DAFFC9"/>
<path d="M200.029 417.6C199.901 417.6 199.725 417.584 199.501 417.552C199.389 417.52 199.213 417.504 198.973 417.504C198.365 417.504 197.613 417.368 196.717 417.096H196.549C196.437 417.096 196.317 417.064 196.189 417C196.157 416.968 196.117 416.944 196.069 416.928C196.021 416.896 195.965 416.856 195.901 416.808L195.397 416.52C194.917 416.248 194.493 415.872 194.125 415.392C193.757 414.896 193.461 414.352 193.237 413.76C192.805 412.672 192.589 411.56 192.589 410.424C192.589 409.16 192.845 407.944 193.357 406.776C193.901 405.544 194.629 404.568 195.541 403.848C196.549 403.048 197.669 402.648 198.901 402.648C199.285 402.648 199.581 402.664 199.789 402.696C199.789 402.664 199.813 402.648 199.861 402.648H199.933C201.053 402.648 202.053 402.688 202.933 402.768C203.685 402.88 204.381 403.112 205.021 403.464C206.301 404.312 207.221 405.24 207.781 406.248C208.373 407.368 208.669 408.688 208.669 410.208C208.669 411.728 208.309 413.152 207.589 414.48L207.349 414.864C207.285 414.96 207.245 415.008 207.229 415.008L207.157 415.128L206.989 415.224C206.301 416.248 205.261 416.944 203.869 417.312C202.941 417.504 201.661 417.6 200.029 417.6ZM200.437 415.8C200.581 415.8 200.693 415.712 200.773 415.536C200.965 415.248 201.125 414.688 201.253 413.856C201.269 413.712 201.309 413.392 201.373 412.896C201.437 412.4 201.477 411.936 201.493 411.504C201.557 410.416 201.589 409.744 201.589 409.488V408.936V408.744C201.589 408.168 201.565 407.672 201.517 407.256C201.469 406.6 201.373 406.08 201.229 405.696C201.085 405.504 200.973 405.408 200.893 405.408C200.733 405.408 200.581 405.528 200.437 405.768C200.293 406.008 200.181 406.448 200.101 407.088L199.597 410.928V411.408V411.72C199.645 412.392 199.669 412.832 199.669 413.04L199.717 413.616L199.789 414.384C199.789 414.512 199.805 414.624 199.837 414.72L200.101 415.608C200.117 415.672 200.157 415.72 200.221 415.752C200.301 415.784 200.373 415.8 200.437 415.8Z" fill="#CCE7FF"/>
<path d="M217.144 417.3C216.084 417.3 215.204 417.25 214.504 417.15C214.144 417.13 213.714 417.05 213.214 416.91L212.254 416.46H212.074C212.014 416.46 211.954 416.41 211.894 416.31C211.874 416.29 211.854 416.26 211.834 416.22C211.834 416.16 211.814 416.09 211.774 416.01C211.674 415.75 211.614 415.45 211.594 415.11C211.574 414.75 211.564 414.4 211.564 414.06C211.564 413.62 211.574 413.29 211.594 413.07C211.594 412.95 211.594 412.81 211.594 412.65C211.614 412.49 211.614 412.31 211.594 412.11C211.474 408.39 211.414 405.63 211.414 403.83V403.02V402.36C211.414 402.06 211.424 401.83 211.444 401.67C211.444 401.53 211.464 401.26 211.504 400.86C211.524 400.86 211.544 400.84 211.564 400.8C211.584 400.76 211.604 400.73 211.624 400.71C211.604 400.73 211.734 400.62 212.014 400.38C212.074 400.32 212.174 400.23 212.314 400.11C212.374 400.07 212.424 400.03 212.464 399.99C212.524 399.95 212.584 399.91 212.644 399.87C212.724 399.81 212.784 399.74 212.824 399.66C212.964 399.68 213.174 399.69 213.454 399.69C213.794 399.69 214.094 399.68 214.354 399.66C214.614 399.64 214.834 399.62 215.014 399.6C215.474 399.54 216.184 399.51 217.144 399.51C218.524 399.51 220.124 399.63 221.944 399.87C222.064 399.89 222.274 399.92 222.574 399.96C222.874 399.98 223.154 400.02 223.414 400.08C224.634 400.22 225.644 400.47 226.444 400.83C227.464 401.27 228.184 401.88 228.604 402.66C228.844 403.1 228.964 403.6 228.964 404.16C228.964 404.44 228.944 404.68 228.904 404.88C228.864 405.28 228.834 405.51 228.814 405.57C228.694 405.95 228.474 406.31 228.154 406.65C227.794 407.05 227.474 407.3 227.194 407.4C227.194 407.44 227.134 407.48 227.014 407.52C226.994 407.52 226.874 407.57 226.654 407.67C226.614 407.69 226.554 407.72 226.474 407.76C226.414 407.78 226.364 407.8 226.324 407.82L226.114 407.91C225.894 408.05 225.764 408.15 225.724 408.21L225.844 408.3C226.484 408.58 227.014 408.84 227.434 409.08C227.854 409.32 228.214 409.6 228.514 409.92C229.214 410.68 229.564 411.65 229.564 412.83V413.1C229.564 413.22 229.544 413.28 229.504 413.28L229.414 413.46L229.264 413.67C229.184 413.75 229.084 413.86 228.964 414C228.844 414.14 228.694 414.29 228.514 414.45L228.154 414.75C227.874 414.99 227.594 415.18 227.314 415.32C227.034 415.44 226.664 415.57 226.204 415.71C226.144 415.75 225.984 415.82 225.724 415.92C225.384 416.08 225.134 416.18 224.974 416.22C224.714 416.32 224.474 416.41 224.254 416.49C224.034 416.57 223.854 416.64 223.714 416.7C223.514 416.74 223.274 416.76 222.994 416.76L221.914 416.91C220.794 417.03 220.154 417.09 219.994 417.09C219.874 417.13 219.674 417.15 219.394 417.15C219.214 417.17 219.004 417.18 218.764 417.18L218.644 417.24L218.524 417.3H217.144ZM220.264 405.81H220.354C220.394 405.81 220.424 405.81 220.444 405.81C220.484 405.79 220.504 405.78 220.504 405.78C220.744 405.68 221.054 405.54 221.434 405.36L222.094 405.06C222.214 405 222.454 404.89 222.814 404.73C222.894 404.67 222.954 404.63 222.994 404.61C223.054 404.59 223.094 404.58 223.114 404.58L223.414 404.43C223.354 404.31 223.234 404.21 223.054 404.13C222.894 404.05 222.664 403.96 222.364 403.86C221.864 403.76 221.464 403.71 221.164 403.71C220.624 403.71 220.284 403.89 220.144 404.25C220.044 404.49 219.994 404.93 219.994 405.57C219.994 405.59 219.994 405.63 219.994 405.69C219.994 405.73 220.004 405.76 220.024 405.78C220.044 405.8 220.084 405.81 220.144 405.81H220.264ZM219.874 413.1C219.894 413.1 219.904 413.09 219.904 413.07L223.894 411.21L224.104 411.03C224.024 410.99 223.944 410.97 223.864 410.97L223.624 410.85C223.444 410.81 223.214 410.78 222.934 410.76C222.654 410.72 222.414 410.67 222.214 410.61C222.074 410.61 221.874 410.6 221.614 410.58C221.354 410.54 221.114 410.52 220.894 410.52H219.904C219.744 410.52 219.664 410.65 219.664 410.91V412.98C219.664 413.06 219.714 413.1 219.814 413.1H219.874Z" fill="#FFEAB3"/>
</svg>
