<svg width="104" height="26" viewBox="0 0 104 26" fill="none" xmlns="http://www.w3.org/2000/svg">
<path d="M4.264 25.108C4.024 25.108 3.832 25.084 3.688 25.036H2.968H2.32H2.068L0.448 24.64L0.304 24.352C0.28 24.352 0.268 24.22 0.268 23.956C0.268 23.62 0.256 23.344 0.232 23.128L0.196 21.472C0.172 21.112 0.16 20.572 0.16 19.852L0.0880001 17.08C0.0880001 16.48 0.112 15.652 0.16 14.596L0.196 13.372C0.244 12.604 0.268 11.344 0.268 9.592V9.34V8.872C0.22 8.8 0.196 8.668 0.196 8.476L0.16 8.224C0.16 7.624 0.196 7 0.268 6.352C0.316 5.536 0.34 4.792 0.34 4.12L0.304 3.112C0.28 2.848 0.268 2.536 0.268 2.176C0.268 2.152 0.244 2.116 0.196 2.068C0.172 2.02 0.16 1.972 0.16 1.924C0.16 1.684 0.256 1.48 0.448 1.312C0.64 1.144 0.88 1.024 1.168 0.951998C1.552 0.831999 2.044 0.771999 2.644 0.771999H8.728H11.536C11.56 0.771999 11.596 0.795999 11.644 0.844C11.692 0.891999 11.74 0.927999 11.788 0.951998C11.98 1.12 12.22 1.444 12.508 1.924C12.58 2.068 12.652 2.236 12.724 2.428C12.82 2.596 12.94 2.872 13.084 3.256C13.252 3.64 13.48 4.228 13.768 5.02L14.2 6.136C14.392 6.496 14.608 7.012 14.848 7.684C14.92 7.876 14.992 8.068 15.064 8.26C15.16 8.452 15.244 8.644 15.316 8.836C15.364 9.004 15.412 9.136 15.46 9.232C15.532 9.304 15.568 9.352 15.568 9.376C15.736 9.76 15.916 9.952 16.108 9.952C16.348 9.952 16.54 9.76 16.684 9.376C16.708 9.352 16.732 9.304 16.756 9.232C16.78 9.136 16.84 8.992 16.936 8.8L17.476 7.612L18.916 4.552L19.528 3.256C19.6 3.064 19.648 2.908 19.672 2.788C19.72 2.644 19.768 2.548 19.816 2.5C19.912 2.284 20.14 1.912 20.5 1.384C20.62 1.192 20.728 1.048 20.824 0.951998C20.896 0.927999 20.944 0.891999 20.968 0.844C20.992 0.795999 21.028 0.771999 21.076 0.771999H23.884H29.968H30.508H30.868H31.336H32.128C32.176 0.771999 32.236 0.951998 32.308 1.312L32.416 4.84C32.464 5.848 32.488 7.432 32.488 9.592V11.68C32.488 12.496 32.452 13.408 32.38 14.416C32.308 15.424 32.26 16.072 32.236 16.36L32.164 17.08V18.34C32.188 18.676 32.2 19.18 32.2 19.852C32.2 20.572 32.212 21.112 32.236 21.472C32.236 22.168 32.26 22.648 32.308 22.912V23.956V24.352L32.2 24.64L30.58 25.036H30.328H29.68H28.96C28.792 25.084 28.588 25.108 28.348 25.108C27.916 25.108 27.316 25.084 26.548 25.036L25.648 25C25.48 24.976 25.288 24.952 25.072 24.928C24.856 24.904 24.592 24.892 24.28 24.892L22.876 24.784C22.828 24.784 22.792 24.796 22.768 24.82H22.48C22.36 24.82 22.288 24.688 22.264 24.424C22.12 23.944 22.048 23.128 22.048 21.976C22.048 21.208 22.036 20.608 22.012 20.176L21.976 18.232C21.952 17.8 21.94 17.176 21.94 16.36C21.94 16.168 21.856 16.072 21.688 16.072C21.592 16.072 21.496 16.192 21.4 16.432L21.004 17.404L20.68 18.304C20.632 18.448 20.584 18.592 20.536 18.736C20.488 18.88 20.428 19.012 20.356 19.132L20.176 19.564C19.96 20.044 19.684 20.584 19.348 21.184C18.988 21.832 18.544 22.348 18.016 22.732C17.728 22.9 17.476 22.984 17.26 22.984H16.72C16.432 22.984 16.192 22.96 16 22.912H15.208H14.488C13.528 21.376 12.628 19.696 11.788 17.872L11.248 16.54C11.104 16.228 11.008 16.072 10.96 16.072C10.792 16.072 10.708 16.168 10.708 16.36V18.052C10.708 19.732 10.684 20.968 10.636 21.76C10.588 23.008 10.504 23.872 10.384 24.352C10.36 24.664 10.288 24.82 10.168 24.82H9.916L9.736 24.784C8.92 24.832 8.272 24.88 7.792 24.928C7.504 24.952 7 24.988 6.28 25.036C5.56 25.084 4.888 25.108 4.264 25.108Z" fill="#D5D6FF"/>
<path d="M45.1173 25.75C44.9573 25.75 44.7373 25.73 44.4573 25.69C44.3173 25.65 44.0973 25.63 43.7973 25.63C43.0373 25.63 42.0973 25.46 40.9773 25.12H40.7673C40.6273 25.12 40.4773 25.08 40.3173 25C40.2773 24.96 40.2273 24.93 40.1673 24.91C40.1073 24.87 40.0373 24.82 39.9573 24.76L39.3273 24.4C38.7273 24.06 38.1973 23.59 37.7373 22.99C37.2773 22.37 36.9073 21.69 36.6273 20.95C36.0873 19.59 35.8173 18.2 35.8173 16.78C35.8173 15.2 36.1373 13.68 36.7773 12.22C37.4573 10.68 38.3673 9.46 39.5073 8.56C40.7673 7.56 42.1673 7.06 43.7073 7.06C44.1873 7.06 44.5573 7.08 44.8173 7.12C44.8173 7.08 44.8473 7.06 44.9073 7.06H44.9973C46.3973 7.06 47.6473 7.11 48.7473 7.21C49.6873 7.35 50.5573 7.64 51.3573 8.08C52.9573 9.14 54.1073 10.3 54.8073 11.56C55.5473 12.96 55.9173 14.61 55.9173 16.51C55.9173 18.41 55.4673 20.19 54.5673 21.85L54.2673 22.33C54.1873 22.45 54.1373 22.51 54.1173 22.51L54.0273 22.66L53.8173 22.78C52.9573 24.06 51.6573 24.93 49.9173 25.39C48.7573 25.63 47.1573 25.75 45.1173 25.75ZM45.6273 23.5C45.8073 23.5 45.9473 23.39 46.0473 23.17C46.2873 22.81 46.4873 22.11 46.6473 21.07C46.6673 20.89 46.7173 20.49 46.7973 19.87C46.8773 19.25 46.9273 18.67 46.9473 18.13C47.0273 16.77 47.0673 15.93 47.0673 15.61V14.92V14.68C47.0673 13.96 47.0373 13.34 46.9773 12.82C46.9173 12 46.7973 11.35 46.6173 10.87C46.4373 10.63 46.2973 10.51 46.1973 10.51C45.9973 10.51 45.8073 10.66 45.6273 10.96C45.4473 11.26 45.3073 11.81 45.2073 12.61L44.5773 17.41V18.01V18.4C44.6373 19.24 44.6673 19.79 44.6673 20.05L44.7273 20.77L44.8173 21.73C44.8173 21.89 44.8373 22.03 44.8773 22.15L45.2073 23.26C45.2273 23.34 45.2773 23.4 45.3573 23.44C45.4573 23.48 45.5473 23.5 45.6273 23.5Z" fill="#DAFFC9"/>
<path d="M67.7638 25.75C67.6038 25.75 67.3838 25.73 67.1038 25.69C66.9638 25.65 66.7438 25.63 66.4438 25.63C65.6838 25.63 64.7438 25.46 63.6238 25.12H63.4138C63.2738 25.12 63.1238 25.08 62.9638 25C62.9238 24.96 62.8738 24.93 62.8138 24.91C62.7538 24.87 62.6838 24.82 62.6038 24.76L61.9738 24.4C61.3738 24.06 60.8438 23.59 60.3838 22.99C59.9238 22.37 59.5538 21.69 59.2738 20.95C58.7338 19.59 58.4638 18.2 58.4638 16.78C58.4638 15.2 58.7838 13.68 59.4238 12.22C60.1038 10.68 61.0138 9.46 62.1538 8.56C63.4138 7.56 64.8138 7.06 66.3538 7.06C66.8338 7.06 67.2038 7.08 67.4638 7.12C67.4638 7.08 67.4938 7.06 67.5538 7.06H67.6438C69.0438 7.06 70.2938 7.11 71.3938 7.21C72.3338 7.35 73.2038 7.64 74.0038 8.08C75.6038 9.14 76.7538 10.3 77.4538 11.56C78.1938 12.96 78.5638 14.61 78.5638 16.51C78.5638 18.41 78.1138 20.19 77.2138 21.85L76.9138 22.33C76.8338 22.45 76.7838 22.51 76.7638 22.51L76.6738 22.66L76.4638 22.78C75.6038 24.06 74.3038 24.93 72.5638 25.39C71.4038 25.63 69.8038 25.75 67.7638 25.75ZM68.2738 23.5C68.4538 23.5 68.5938 23.39 68.6938 23.17C68.9338 22.81 69.1338 22.11 69.2938 21.07C69.3138 20.89 69.3638 20.49 69.4438 19.87C69.5238 19.25 69.5738 18.67 69.5938 18.13C69.6738 16.77 69.7138 15.93 69.7138 15.61V14.92V14.68C69.7138 13.96 69.6838 13.34 69.6238 12.82C69.5638 12 69.4438 11.35 69.2638 10.87C69.0838 10.63 68.9438 10.51 68.8438 10.51C68.6438 10.51 68.4538 10.66 68.2738 10.96C68.0938 11.26 67.9538 11.81 67.8538 12.61L67.2238 17.41V18.01V18.4C67.2838 19.24 67.3138 19.79 67.3138 20.05L67.3738 20.77L67.4638 21.73C67.4638 21.89 67.4838 22.03 67.5238 22.15L67.8538 23.26C67.8738 23.34 67.9238 23.4 68.0038 23.44C68.1038 23.48 68.1938 23.5 68.2738 23.5Z" fill="#CCE7FF"/>
<path d="M88.7843 25.36C87.5123 25.36 86.4563 25.3 85.6163 25.18C85.1843 25.156 84.6683 25.06 84.0683 24.892L82.9163 24.352H82.7003C82.6283 24.352 82.5563 24.292 82.4843 24.172C82.4603 24.148 82.4363 24.112 82.4123 24.064C82.4123 23.992 82.3883 23.908 82.3403 23.812C82.2203 23.5 82.1483 23.14 82.1243 22.732C82.1003 22.3 82.0883 21.88 82.0883 21.472C82.0883 20.944 82.1003 20.548 82.1243 20.284C82.1243 20.14 82.1243 19.972 82.1243 19.78C82.1483 19.588 82.1483 19.372 82.1243 19.132C81.9803 14.668 81.9083 11.356 81.9083 9.196V8.224V7.432C81.9083 7.072 81.9203 6.796 81.9443 6.604C81.9443 6.436 81.9683 6.112 82.0163 5.632C82.0403 5.632 82.0643 5.608 82.0883 5.56C82.1123 5.512 82.1363 5.476 82.1603 5.452C82.1363 5.476 82.2923 5.344 82.6283 5.056C82.7003 4.984 82.8203 4.876 82.9883 4.732C83.0603 4.684 83.1203 4.636 83.1683 4.588C83.2403 4.54 83.3123 4.492 83.3843 4.444C83.4803 4.372 83.5523 4.288 83.6003 4.192C83.7683 4.216 84.0203 4.228 84.3563 4.228C84.7643 4.228 85.1243 4.216 85.4363 4.192C85.7483 4.168 86.0123 4.144 86.2283 4.12C86.7803 4.048 87.6323 4.012 88.7843 4.012C90.4403 4.012 92.3603 4.156 94.5443 4.444C94.6883 4.468 94.9403 4.504 95.3003 4.552C95.6603 4.576 95.9963 4.624 96.3083 4.696C97.7723 4.864 98.9843 5.164 99.9443 5.596C101.168 6.124 102.032 6.856 102.536 7.792C102.824 8.32 102.968 8.92 102.968 9.592C102.968 9.928 102.944 10.216 102.896 10.456C102.848 10.936 102.812 11.212 102.788 11.284C102.644 11.74 102.38 12.172 101.996 12.58C101.564 13.06 101.18 13.36 100.844 13.48C100.844 13.528 100.772 13.576 100.628 13.624C100.604 13.624 100.46 13.684 100.196 13.804C100.148 13.828 100.076 13.864 99.9803 13.912C99.9083 13.936 99.8483 13.96 99.8003 13.984L99.5483 14.092C99.2843 14.26 99.1283 14.38 99.0803 14.452L99.2243 14.56C99.9923 14.896 100.628 15.208 101.132 15.496C101.636 15.784 102.068 16.12 102.428 16.504C103.268 17.416 103.688 18.58 103.688 19.996V20.32C103.688 20.464 103.664 20.536 103.616 20.536L103.508 20.752L103.328 21.004C103.232 21.1 103.112 21.232 102.968 21.4C102.824 21.568 102.644 21.748 102.428 21.94L101.996 22.3C101.66 22.588 101.324 22.816 100.988 22.984C100.652 23.128 100.208 23.284 99.6563 23.452C99.5843 23.5 99.3923 23.584 99.0803 23.704C98.6723 23.896 98.3723 24.016 98.1803 24.064C97.8683 24.184 97.5803 24.292 97.3163 24.388C97.0523 24.484 96.8363 24.568 96.6683 24.64C96.4283 24.688 96.1403 24.712 95.8043 24.712L94.5083 24.892C93.1643 25.036 92.3963 25.108 92.2043 25.108C92.0603 25.156 91.8203 25.18 91.4843 25.18C91.2683 25.204 91.0163 25.216 90.7283 25.216L90.5843 25.288L90.4403 25.36H88.7843ZM92.5283 11.572H92.6363C92.6843 11.572 92.7203 11.572 92.7443 11.572C92.7923 11.548 92.8163 11.536 92.8163 11.536C93.1043 11.416 93.4763 11.248 93.9323 11.032L94.7243 10.672C94.8683 10.6 95.1563 10.468 95.5883 10.276C95.6843 10.204 95.7563 10.156 95.8043 10.132C95.8763 10.108 95.9243 10.096 95.9483 10.096L96.3083 9.916C96.2363 9.772 96.0923 9.652 95.8763 9.556C95.6843 9.46 95.4083 9.352 95.0483 9.232C94.4483 9.112 93.9683 9.052 93.6083 9.052C92.9603 9.052 92.5523 9.268 92.3843 9.7C92.2643 9.988 92.2043 10.516 92.2043 11.284C92.2043 11.308 92.2043 11.356 92.2043 11.428C92.2043 11.476 92.2163 11.512 92.2403 11.536C92.2643 11.56 92.3123 11.572 92.3843 11.572H92.5283ZM92.0603 20.32C92.0843 20.32 92.0963 20.308 92.0963 20.284L96.8843 18.052L97.1363 17.836C97.0403 17.788 96.9443 17.764 96.8483 17.764L96.5603 17.62C96.3443 17.572 96.0683 17.536 95.7323 17.512C95.3963 17.464 95.1083 17.404 94.8683 17.332C94.7003 17.332 94.4603 17.32 94.1483 17.296C93.8363 17.248 93.5483 17.224 93.2843 17.224H92.0963C91.9043 17.224 91.8083 17.38 91.8083 17.692V20.176C91.8083 20.272 91.8683 20.32 91.9883 20.32H92.0603Z" fill="#FFEAB3"/>
</svg>
